<svg xmlns="http://www.w3.org/2000/svg" viewBox="0 0 512 512">
  <defs>
    <linearGradient id="bgGrad" x1="0" y1="0" x2="1" y2="1">
      <stop offset="0%" stop-color="#2c7a7b" />
      <stop offset="100%" stop-color="#38b2ac" />
    </linearGradient>
    <linearGradient id="bookGrad" x1="0" y1="0" x2="1" y2="1">
      <stop offset="0%" stop-color="#ffffff" />
      <stop offset="100%" stop-color="#e2e8f0" />
    </linearGradient>
  </defs>
  <rect width="512" height="512" rx="90" fill="#f8fafc" />
  <path d="M256 48L112 128v192l144 96 144-96V128L256 48z" fill="url(#bgGrad)" opacity="0.95" />
  <path d="M256 120L160 164v56l96 40 96-40v-56L256 120z" fill="#f8fafc" />
  <path d="M344 233c0 10.5-8.5 19-19 19h-27v69h27c10.5 0 19 8.5 19 19v30c0 13.3-10.7 24-24 24h-9.5v18c0 8.3-6.7 15-15 15h-24c-8.3 0-15-6.7-15-15v-18H211c-13.3 0-24-10.7-24-24v-30c0-10.5 8.5-19 19-19h27v-69h-27c-10.5 0-19-8.5-19-19v-28c0-19.9 16.1-36 36-36h6.9V145c-9.5 2.6-16.5 11.4-16.5 21.5v5h-20c-8.8 0-16 7.2-16 16v16h88v-16c0-8.8-7.2-16-16-16h-20v-5c0-10.1-7-18.9-16.5-21.5v-16h6.9c19.9 0 36 16.1 36 36v28z" fill="#ffffff" />
  <path d="M249 160h14v44h-14z" fill="#2c7a7b" />
  <path d="M244 216c-5 0-9 4-9 9v110h32V225c0-5-4-9-9-9h-14z" fill="#1d4e5f" />
  <path d="M256 176c16 0 30 13 30 30v142h-60V206c0-17 14-30 30-30z" fill="#38b2ac" opacity="0.85" />
  <path d="M227 252c0 20 11 31 31 40 20-9 31-20 31-40 0-22-24-18-31-18s-31-4-31 18z" fill="#ffffff" opacity="0.95" />
  <path d="M260 104h-24c-6.6 0-12 5.4-12 12v24h48v-24c0-6.6-5.4-12-12-12z" fill="#ffffff" />
  <path d="M248 116h16v16h-16z" fill="#2c7a7b" />
  <path d="M139 288c0-4 2.9-7.4 6.8-8l84-16c5.1-1 10.2 2 11.2 7.1 1 5.1-2 10.2-7.1 11.2l-84 16c-5.1 1-10.2-2-11.2-7.1-0.3-1.2-0.5-2.3-0.5-3.2z" fill="url(#bookGrad)" />
  <path d="M373 288c0-4-2.9-7.4-6.8-8l-84-16c-5.1-1-10.2 2-11.2 7.1-1 5.1 2 10.2 7.1 11.2l84 16c5.1 1 10.2-2 11.2-7.1 0.3-1.2 0.5-2.3 0.5-3.2z" fill="url(#bookGrad)" />
  <path d="M104 330l104-32 48 16 48-16 104 32-104 56-48-16-48 16-104-56z" fill="#ffffff" />
  <path d="M104 330l104-32 48 16 48-16 104 32v40l-104-56-48 16-48-16-104 56v-40z" fill="#e2e8f0" opacity="0.95" />
  <path d="M256 350c-48 0-88-18-120-32v30c32 16 72 32 120 32s88-18 120-32v-30c-32 14-72 32-120 32z" fill="#38b2ac" opacity="0.2" />
</svg>
